<?xml version="1.0" encoding="utf-8"?>
<!-- Generator: Adobe Illustrator 20.1.0, SVG Export Plug-In . SVG Version: 6.00 Build 0)  -->
<svg version="1.1" id="Layer_3" xmlns="http://www.w3.org/2000/svg" xmlns:xlink="http://www.w3.org/1999/xlink" x="0px" y="0px"
	 viewBox="0 0 190.8 50.8" style="enable-background:new 0 0 190.8 50.8;" xml:space="preserve">
<style type="text/css">
	.st0{fill:#FFFFFF;}
</style>
<g>
	<path class="st0" d="M1,1.4h13c12,0,19,6.9,19,16.6v0.1C33,27.8,25.9,35,13.8,35H1V1.4z M14.1,26.8c5.6,0,9.3-3.1,9.3-8.5v-0.1
		c0-5.4-3.7-8.5-9.3-8.5h-3.8v17.1H14.1z"/>
	<path class="st0" d="M34.8,22.2L34.8,22.2c0-7.5,6.1-13.7,14.4-13.7S63.5,14.6,63.5,22v0.1c0,7.4-6.1,13.6-14.4,13.6
		S34.8,29.6,34.8,22.2z M54.6,22.2L54.6,22.2c0-3.3-2.3-6-5.5-6c-3.3,0-5.4,2.6-5.4,5.8v0.1c0,3.2,2.3,5.9,5.5,5.9
		C52.5,28,54.6,25.3,54.6,22.2z"/>
	<path class="st0" d="M65.9,9.1H75v3.6c1.7-2.2,4.1-4.1,7.7-4.1c3.5,0,6.1,1.5,7.5,4.2c2.3-2.6,4.9-4.2,8.7-4.2
		c5.5,0,8.9,3.5,8.9,9.5v17.1h-9.1V21.1c0-2.8-1.4-4.3-3.6-4.3s-3.8,1.5-3.8,4.3v14.1h-9.1V21.1c0-2.8-1.4-4.3-3.6-4.3
		s-3.7,1.5-3.7,4.3v14.1h-9.1V9.1H65.9z"/>
	<path class="st0" d="M124.2,9.1h9.1v3.7c1.7-2.2,4.1-4.2,7.8-4.2c5.5,0,8.8,3.7,8.8,9.6v17h-9.1V21c0-2.8-1.5-4.4-3.7-4.4
		s-3.8,1.5-3.8,4.4v14.1h-9.1V9.1z"/>
	<path class="st0" d="M153.2,0h9.5v6.7h-9.5V0z M153.4,9.1h9.1v26h-9.1V9.1z"/>
	<path class="st0" d="M165.2,22.2L165.2,22.2c0-7.5,5.7-13.7,13.9-13.7c5.3,0,8.9,2.3,11.1,5.8l-6.2,4.6c-1.3-1.7-2.6-2.7-4.9-2.7
		c-2.9,0-5.1,2.6-5.1,5.8v0.1c0,3.4,2.1,5.9,5.2,5.9c2.2,0,3.6-1,5-2.7l6.1,4.4c-2.4,3.6-5.9,6-11.6,6
		C170.9,35.7,165.2,29.5,165.2,22.2z"/>
	<g>
		<path class="st0" d="M124.3,42.1L124.3,42.1c0-2.9,2.2-5.3,5.3-5.3c1.9,0,3,0.7,4,1.6l-1.2,1.3c-0.8-0.8-1.7-1.3-2.9-1.3
			c-2,0-3.4,1.6-3.4,3.6l0,0c0,2,1.4,3.6,3.4,3.6c1.3,0,2.1-0.5,2.9-1.3l1.2,1.2c-1.1,1.1-2.2,1.8-4.1,1.8
			C126.5,47.3,124.3,45,124.3,42.1z"/>
		<path class="st0" d="M134.3,43.3L134.3,43.3c0-2.2,1.8-4.1,4.1-4.1c2.4,0,4.1,1.8,4.1,4l0,0c0,2.2-1.8,4-4.1,4
			C136,47.3,134.3,45.5,134.3,43.3z M140.7,43.3L140.7,43.3c0-1.4-1-2.5-2.4-2.5s-2.3,1.1-2.3,2.4l0,0c0,1.3,1,2.5,2.3,2.5
			C139.8,45.8,140.7,44.7,140.7,43.3z"/>
		<path class="st0" d="M143.8,39.4h1.8v1.2c0.5-0.7,1.2-1.3,2.3-1.3s1.9,0.5,2.3,1.4c0.6-0.8,1.4-1.4,2.6-1.4c1.7,0,2.7,1.1,2.7,2.9
			v4.9h-1.8v-4.4c0-1.2-0.6-1.9-1.6-1.9s-1.6,0.7-1.6,1.9V47h-1.8v-4.4c0-1.2-0.6-1.9-1.6-1.9s-1.6,0.7-1.6,1.9v4.3h-1.8v-7.5H143.8
			z"/>
		<path class="st0" d="M157.2,39.4h1.8v1.3c0.6-0.8,1.4-1.4,2.6-1.4c1.8,0,3.6,1.4,3.6,4l0,0c0,2.6-1.8,4-3.6,4
			c-1.3,0-2.1-0.6-2.6-1.4v3.5h-1.8V39.4z M163.4,43.3L163.4,43.3c0-1.5-1-2.5-2.2-2.5s-2.2,1-2.2,2.5l0,0c0,1.5,1,2.5,2.2,2.5
			S163.4,44.8,163.4,43.3z"/>
		<path class="st0" d="M171.3,47.1v-0.9c-0.5,0.6-1.3,1.1-2.5,1.1c-1.5,0-2.7-0.8-2.7-2.4l0,0c0-1.7,1.3-2.5,3.1-2.5
			c0.9,0,1.5,0.1,2.1,0.3v-0.1c0-1.1-0.7-1.6-1.9-1.6c-0.9,0-1.5,0.2-2.2,0.5l-0.5-1.4c0.8-0.4,1.7-0.6,2.9-0.6
			c2.3,0,3.4,1.2,3.4,3.3v4.6h-1.7V47.1z M171.3,43.9c-0.5-0.2-1.1-0.3-1.8-0.3c-1.1,0-1.8,0.5-1.8,1.2l0,0c0,0.7,0.7,1.1,1.5,1.1
			c1.2,0,2-0.7,2-1.6v-0.4H171.3z"/>
		<path class="st0" d="M174.7,39.4h1.8v1.2c0.5-0.7,1.2-1.4,2.4-1.4c1.7,0,2.7,1.2,2.7,3v4.9h-1.8v-4.4c0-1.2-0.6-1.9-1.6-1.9
			s-1.7,0.7-1.7,1.9V47h-1.8L174.7,39.4L174.7,39.4z"/>
		<path class="st0" d="M182.6,49l0.6-1.3c0.3,0.2,0.7,0.3,1,0.3c0.5,0,0.8-0.2,1.1-0.9l-3.2-7.7h1.9l2.2,5.7l2-5.7h1.8l-3.1,7.9
			c-0.6,1.6-1.3,2.2-2.5,2.2C183.7,49.5,183.2,49.3,182.6,49z"/>
	</g>
	<g>
		<rect x="111.2" y="0" class="st0" width="9.5" height="6.7"/>
		<path class="st0" d="M111.4,47.1h2.3c-1.3-0.4-2.1-1.4-2.1-2.7l0,0c0-1.4,0.9-2.3,2.5-2.9c-0.7-0.8-1-1.4-1-2.2l0,0
			c0-1.3,1.1-2.4,2.7-2.4c1.4,0,2.5,1,2.5,2.3l0,0c0,1.3-0.9,2.1-2.4,2.7l2.3,2.4c0.5-0.7,0.9-1.4,1.2-2.3l0.9,0.4
			c-0.5,1-0.9,1.8-1.5,2.6l1.7,1.7V9.2h-9.1V47.1z"/>
		<path class="st0" d="M117.1,39.1L117.1,39.1c0-0.8-0.6-1.4-1.4-1.4c-0.9,0-1.5,0.6-1.5,1.5l0,0c0,0.6,0.2,1,1,1.9
			C116.5,40.6,117.1,40,117.1,39.1z"/>
		<path class="st0" d="M112.8,44.4L112.8,44.4c0,1.1,0.9,2,2.1,2c1,0,1.8-0.5,2.6-1.3l-2.7-2.8C113.4,42.7,112.8,43.5,112.8,44.4z"
			/>
		<polygon class="st0" points="120,47.1 120.5,47.1 120.5,46.7 		"/>
		<path class="st0" d="M118.1,45.7c-0.7,0.7-1.4,1.2-2.3,1.4h3.7L118.1,45.7z"/>
	</g>
</g>
</svg>
