<?xml version="1.0" encoding="utf-8"?>
<!-- Generator: Adobe Illustrator 20.1.0, SVG Export Plug-In . SVG Version: 6.00 Build 0)  -->
<svg version="1.1" id="Layer_3" xmlns="http://www.w3.org/2000/svg" xmlns:xlink="http://www.w3.org/1999/xlink" x="0px" y="0px"
	 viewBox="0 0 281.6 175.1" style="enable-background:new 0 0 281.6 175.1;" xml:space="preserve">
<style type="text/css">
	.st0{fill:#07EFC1;}
	.st1{fill:#FFFFFF;}
</style>
<g>
	<path class="st0" d="M50.6,94.4h13c12,0,19,6.9,19,16.6v0.1c0,9.7-7.1,16.9-19.2,16.9H50.6V94.4z M63.7,119.8
		c5.6,0,9.3-3.1,9.3-8.5v-0.1c0-5.4-3.7-8.5-9.3-8.5h-3.8v17.1H63.7z"/>
	<path class="st0" d="M84.4,115.2L84.4,115.2c0-7.5,6.1-13.7,14.4-13.7c8.3,0,14.3,6.1,14.3,13.5v0.1c0,7.4-6.1,13.6-14.4,13.6
		C90.4,128.7,84.4,122.6,84.4,115.2z M104.2,115.2L104.2,115.2c0-3.3-2.3-6-5.5-6c-3.3,0-5.4,2.6-5.4,5.8v0.1c0,3.2,2.3,5.9,5.5,5.9
		C102.1,121,104.2,118.3,104.2,115.2z"/>
	<path class="st0" d="M115.5,102.1h9.1v3.6c1.7-2.2,4.1-4.1,7.7-4.1c3.5,0,6.1,1.5,7.5,4.2c2.3-2.6,4.9-4.2,8.7-4.2
		c5.5,0,8.9,3.5,8.9,9.5v17.1h-9.1v-14.1c0-2.8-1.4-4.3-3.6-4.3s-3.8,1.5-3.8,4.3v14.1h-9.1v-14.1c0-2.8-1.4-4.3-3.6-4.3
		s-3.7,1.5-3.7,4.3v14.1h-9.1V102.1z"/>
	<path class="st0" d="M173.8,102.1h9.1v3.7c1.7-2.2,4.1-4.2,7.8-4.2c5.5,0,8.8,3.7,8.8,9.6v17h-9.1V114c0-2.8-1.5-4.4-3.7-4.4
		c-2.2,0-3.8,1.5-3.8,4.4v14.1h-9.1V102.1z"/>
	<path class="st0" d="M202.8,93h9.5v6.7h-9.5V93z M203,102.1h9.1v26H203V102.1z"/>
	<path class="st0" d="M214.8,115.2L214.8,115.2c0-7.5,5.7-13.7,13.9-13.7c5.3,0,8.9,2.3,11.1,5.8l-6.2,4.6c-1.3-1.7-2.6-2.7-4.9-2.7
		c-2.9,0-5.1,2.6-5.1,5.8v0.1c0,3.4,2.1,5.9,5.2,5.9c2.2,0,3.6-1,5-2.7l6.1,4.4c-2.4,3.6-5.9,6-11.6,6
		C220.5,128.7,214.8,122.5,214.8,115.2z"/>
	<g>
		<path class="st0" d="M173.9,135.1L173.9,135.1c0-2.9,2.2-5.3,5.3-5.3c1.9,0,3,0.7,4,1.6l-1.2,1.3c-0.8-0.8-1.7-1.3-2.9-1.3
			c-2,0-3.4,1.6-3.4,3.6v0c0,2,1.4,3.6,3.4,3.6c1.3,0,2.1-0.5,2.9-1.3l1.2,1.2c-1.1,1.1-2.2,1.8-4.1,1.8
			C176.1,140.3,173.9,138,173.9,135.1z"/>
		<path class="st0" d="M183.9,136.3L183.9,136.3c0-2.2,1.8-4.1,4.1-4.1c2.4,0,4.1,1.8,4.1,4v0c0,2.2-1.8,4-4.1,4
			C185.6,140.3,183.9,138.5,183.9,136.3z M190.3,136.3L190.3,136.3c0-1.4-1-2.5-2.4-2.5c-1.4,0-2.3,1.1-2.3,2.4v0
			c0,1.3,1,2.5,2.3,2.5C189.4,138.8,190.3,137.7,190.3,136.3z"/>
		<path class="st0" d="M193.4,132.4h1.8v1.2c0.5-0.7,1.2-1.3,2.3-1.3c1.1,0,1.9,0.5,2.3,1.4c0.6-0.8,1.4-1.4,2.6-1.4
			c1.7,0,2.7,1.1,2.7,2.9v4.9h-1.8v-4.4c0-1.2-0.6-1.9-1.6-1.9c-1,0-1.6,0.7-1.6,1.9v4.3h-1.8v-4.4c0-1.2-0.6-1.9-1.6-1.9
			s-1.6,0.7-1.6,1.9v4.3h-1.8V132.4z"/>
		<path class="st0" d="M206.8,132.4h1.8v1.3c0.6-0.8,1.4-1.4,2.6-1.4c1.8,0,3.6,1.4,3.6,4v0c0,2.6-1.8,4-3.6,4
			c-1.3,0-2.1-0.6-2.6-1.4v3.5h-1.8V132.4z M213,136.3L213,136.3c0-1.5-1-2.5-2.2-2.5s-2.2,1-2.2,2.5v0c0,1.5,1,2.5,2.2,2.5
			C212,138.8,213,137.8,213,136.3z"/>
		<path class="st0" d="M220.9,140.1v-0.9c-0.5,0.6-1.3,1.1-2.5,1.1c-1.5,0-2.7-0.8-2.7-2.4v0c0-1.7,1.3-2.5,3.1-2.5
			c0.9,0,1.5,0.1,2.1,0.3v-0.1c0-1.1-0.7-1.6-1.9-1.6c-0.9,0-1.5,0.2-2.2,0.5l-0.5-1.4c0.8-0.4,1.7-0.6,2.9-0.6
			c2.3,0,3.4,1.2,3.4,3.3v4.6H220.9z M220.9,136.9c-0.5-0.2-1.1-0.3-1.8-0.3c-1.1,0-1.8,0.5-1.8,1.2v0c0,0.7,0.7,1.1,1.5,1.1
			c1.2,0,2-0.7,2-1.6V136.9z"/>
		<path class="st0" d="M224.3,132.4h1.8v1.2c0.5-0.7,1.2-1.4,2.4-1.4c1.7,0,2.7,1.2,2.7,3v4.9h-1.8v-4.4c0-1.2-0.6-1.9-1.6-1.9
			c-1,0-1.7,0.7-1.7,1.9v4.3h-1.8V132.4z"/>
		<path class="st0" d="M232.2,142l0.6-1.3c0.3,0.2,0.7,0.3,1,0.3c0.5,0,0.8-0.2,1.1-0.9l-3.2-7.7h1.9l2.2,5.7l2-5.7h1.8l-3.1,7.9
			c-0.6,1.6-1.3,2.2-2.5,2.2C233.3,142.5,232.8,142.3,232.2,142z"/>
	</g>
	<g>
		<rect x="160.8" y="93" class="st0" width="9.5" height="6.7"/>
		<path class="st0" d="M161,140.1h2.3c-1.3-0.4-2.1-1.4-2.1-2.7v0c0-1.4,0.9-2.3,2.5-2.9c-0.7-0.8-1-1.4-1-2.2v0
			c0-1.3,1.1-2.4,2.7-2.4c1.4,0,2.5,1,2.5,2.3v0c0,1.3-0.9,2.1-2.4,2.7l2.3,2.4c0.5-0.7,0.9-1.4,1.2-2.3l0.9,0.4
			c-0.5,1-0.9,1.8-1.5,2.6l1.7,1.7v-37.5H161V140.1z"/>
		<path class="st0" d="M166.7,132.1L166.7,132.1c0-0.8-0.6-1.4-1.4-1.4c-0.9,0-1.5,0.6-1.5,1.5v0c0,0.6,0.2,1,1,1.9
			C166.1,133.6,166.7,133,166.7,132.1z"/>
		<path class="st0" d="M162.4,137.4L162.4,137.4c0,1.1,0.9,2,2.1,2c1,0,1.8-0.5,2.6-1.3l-2.7-2.8C163,135.7,162.4,136.5,162.4,137.4
			z"/>
		<polygon class="st0" points="169.6,140.1 170.1,140.1 170.1,139.7 		"/>
		<path class="st0" d="M167.7,138.7c-0.7,0.7-1.4,1.2-2.3,1.4h3.7L167.7,138.7z"/>
	</g>
</g>
<g>
	<path class="st1" d="M50.6,41.4h13c12,0,19,6.9,19,16.6v0.1c0,9.7-7.1,16.9-19.2,16.9H50.6V41.4z M63.7,66.8c5.6,0,9.3-3.1,9.3-8.5
		v-0.1c0-5.4-3.7-8.5-9.3-8.5h-3.8v17.1H63.7z"/>
	<path class="st1" d="M84.4,62.2L84.4,62.2c0-7.5,6.1-13.7,14.4-13.7c8.3,0,14.3,6.1,14.3,13.5v0.1c0,7.4-6.1,13.6-14.4,13.6
		C90.4,75.7,84.4,69.6,84.4,62.2z M104.2,62.2L104.2,62.2c0-3.3-2.3-6-5.5-6c-3.3,0-5.4,2.6-5.4,5.8v0.1c0,3.2,2.3,5.9,5.5,5.9
		C102.1,68,104.2,65.3,104.2,62.2z"/>
	<path class="st1" d="M115.5,49.1h9.1v3.6c1.7-2.2,4.1-4.1,7.7-4.1c3.5,0,6.1,1.5,7.5,4.2c2.3-2.6,4.9-4.2,8.7-4.2
		c5.5,0,8.9,3.5,8.9,9.5v17.1h-9.1V60.9c0-2.8-1.4-4.3-3.6-4.3s-3.8,1.5-3.8,4.3v14.1h-9.1V60.9c0-2.8-1.4-4.3-3.6-4.3
		s-3.7,1.5-3.7,4.3v14.1h-9.1V49.1z"/>
	<path class="st1" d="M173.8,49.1h9.1v3.7c1.7-2.2,4.1-4.2,7.8-4.2c5.5,0,8.8,3.7,8.8,9.6v17h-9.1V61c0-2.8-1.5-4.4-3.7-4.4
		c-2.2,0-3.8,1.5-3.8,4.4v14.1h-9.1V49.1z"/>
	<path class="st1" d="M202.8,40h9.5v6.7h-9.5V40z M203,49.1h9.1v26H203V49.1z"/>
	<path class="st1" d="M214.8,62.2L214.8,62.2c0-7.5,5.7-13.7,13.9-13.7c5.3,0,8.9,2.3,11.1,5.8l-6.2,4.6c-1.3-1.7-2.6-2.7-4.9-2.7
		c-2.9,0-5.1,2.6-5.1,5.8v0.1c0,3.4,2.1,5.9,5.2,5.9c2.2,0,3.6-1,5-2.7l6.1,4.4c-2.4,3.6-5.9,6-11.6,6
		C220.5,75.7,214.8,69.5,214.8,62.2z"/>
	<g>
		<path class="st1" d="M173.9,82.1L173.9,82.1c0-2.9,2.2-5.3,5.3-5.3c1.9,0,3,0.7,4,1.6l-1.2,1.3c-0.8-0.8-1.7-1.3-2.9-1.3
			c-2,0-3.4,1.6-3.4,3.6v0c0,2,1.4,3.6,3.4,3.6c1.3,0,2.1-0.5,2.9-1.3l1.2,1.2c-1.1,1.1-2.2,1.8-4.1,1.8
			C176.1,87.3,173.9,85,173.9,82.1z"/>
		<path class="st1" d="M183.9,83.3L183.9,83.3c0-2.2,1.8-4.1,4.1-4.1c2.4,0,4.1,1.8,4.1,4v0c0,2.2-1.8,4-4.1,4
			C185.6,87.3,183.9,85.5,183.9,83.3z M190.3,83.3L190.3,83.3c0-1.4-1-2.5-2.4-2.5c-1.4,0-2.3,1.1-2.3,2.4v0c0,1.3,1,2.5,2.3,2.5
			C189.4,85.8,190.3,84.7,190.3,83.3z"/>
		<path class="st1" d="M193.4,79.4h1.8v1.2c0.5-0.7,1.2-1.3,2.3-1.3c1.1,0,1.9,0.5,2.3,1.4c0.6-0.8,1.4-1.4,2.6-1.4
			c1.7,0,2.7,1.1,2.7,2.9v4.9h-1.8v-4.4c0-1.2-0.6-1.9-1.6-1.9c-1,0-1.6,0.7-1.6,1.9v4.3h-1.8v-4.4c0-1.2-0.6-1.9-1.6-1.9
			s-1.6,0.7-1.6,1.9v4.3h-1.8V79.4z"/>
		<path class="st1" d="M206.8,79.4h1.8v1.3c0.6-0.8,1.4-1.4,2.6-1.4c1.8,0,3.6,1.4,3.6,4v0c0,2.6-1.8,4-3.6,4
			c-1.3,0-2.1-0.6-2.6-1.4v3.5h-1.8V79.4z M213,83.3L213,83.3c0-1.5-1-2.5-2.2-2.5s-2.2,1-2.2,2.5v0c0,1.5,1,2.5,2.2,2.5
			C212,85.8,213,84.8,213,83.3z"/>
		<path class="st1" d="M220.9,87.1v-0.9c-0.5,0.6-1.3,1.1-2.5,1.1c-1.5,0-2.7-0.8-2.7-2.4v0c0-1.7,1.3-2.5,3.1-2.5
			c0.9,0,1.5,0.1,2.1,0.3v-0.1c0-1.1-0.7-1.6-1.9-1.6c-0.9,0-1.5,0.2-2.2,0.5l-0.5-1.4c0.8-0.4,1.7-0.6,2.9-0.6
			c2.3,0,3.4,1.2,3.4,3.3v4.6H220.9z M220.9,83.9c-0.5-0.2-1.1-0.3-1.8-0.3c-1.1,0-1.8,0.5-1.8,1.2v0c0,0.7,0.7,1.1,1.5,1.1
			c1.2,0,2-0.7,2-1.6V83.9z"/>
		<path class="st1" d="M224.3,79.4h1.8v1.2c0.5-0.7,1.2-1.4,2.4-1.4c1.7,0,2.7,1.2,2.7,3v4.9h-1.8v-4.4c0-1.2-0.6-1.9-1.6-1.9
			c-1,0-1.7,0.7-1.7,1.9v4.3h-1.8V79.4z"/>
		<path class="st1" d="M232.2,89l0.6-1.3c0.3,0.2,0.7,0.3,1,0.3c0.5,0,0.8-0.2,1.1-0.9l-3.2-7.7h1.9l2.2,5.7l2-5.7h1.8l-3.1,7.9
			c-0.6,1.6-1.3,2.2-2.5,2.2C233.3,89.5,232.8,89.3,232.2,89z"/>
	</g>
	<g>
		<rect x="160.8" y="40" class="st1" width="9.5" height="6.7"/>
		<path class="st1" d="M161,87.1h2.3c-1.3-0.4-2.1-1.4-2.1-2.7v0c0-1.4,0.9-2.3,2.5-2.9c-0.7-0.8-1-1.4-1-2.2v0
			c0-1.3,1.1-2.4,2.7-2.4c1.4,0,2.5,1,2.5,2.3v0c0,1.3-0.9,2.1-2.4,2.7l2.3,2.4c0.5-0.7,0.9-1.4,1.2-2.3l0.9,0.4
			c-0.5,1-0.9,1.8-1.5,2.6l1.7,1.7V49.1H161V87.1z"/>
		<path class="st1" d="M166.7,79.1L166.7,79.1c0-0.8-0.6-1.4-1.4-1.4c-0.9,0-1.5,0.6-1.5,1.5v0c0,0.6,0.2,1,1,1.9
			C166.1,80.6,166.7,80,166.7,79.1z"/>
		<path class="st1" d="M162.4,84.4L162.4,84.4c0,1.1,0.9,2,2.1,2c1,0,1.8-0.5,2.6-1.3l-2.7-2.8C163,82.7,162.4,83.5,162.4,84.4z"/>
		<polygon class="st1" points="169.6,87.1 170.1,87.1 170.1,86.7 		"/>
		<path class="st1" d="M167.7,85.7c-0.7,0.7-1.4,1.2-2.3,1.4h3.7L167.7,85.7z"/>
	</g>
</g>
</svg>
