<?xml version="1.0" encoding="utf-8"?>
<!-- Generator: Adobe Illustrator 20.1.0, SVG Export Plug-In . SVG Version: 6.00 Build 0)  -->
<svg version="1.1" id="Layer_1" xmlns="http://www.w3.org/2000/svg" xmlns:xlink="http://www.w3.org/1999/xlink" x="0px" y="0px"
	 viewBox="0 0 84.6 102.1" style="enable-background:new 0 0 84.6 102.1;" xml:space="preserve">
<style type="text/css">
	.st0{fill:#07EFC1;}
	.st1{fill:#121420;}
</style>
<path class="st0" d="M54.9,41.7c0-7-5.6-12.6-12.6-12.6s-12.6,5.6-12.6,12.6c0,3.8,1.5,7.9,5.2,12.3l7.4,8.5l7.6-8.4
	C53.6,49.5,54.9,45.5,54.9,41.7z"/>
<path class="st1" d="M43.1,46.4h-1.6c-2.1,0-3.8-1.7-3.8-3.8V41c0-2.1,1.7-3.8,3.8-3.8h1.6c2.1,0,3.8,1.7,3.8,3.8v1.6
	C46.9,44.7,45.2,46.4,43.1,46.4z"/>
</svg>
