<?xml version="1.0" encoding="utf-8"?>
<!-- Generator: Adobe Illustrator 20.1.0, SVG Export Plug-In . SVG Version: 6.00 Build 0)  -->
<svg version="1.1" id="Layer_1" xmlns="http://www.w3.org/2000/svg" xmlns:xlink="http://www.w3.org/1999/xlink" x="0px" y="0px"
	 viewBox="0 0 273 141.7" style="enable-background:new 0 0 273 141.7;" xml:space="preserve">
<style type="text/css">
	.st0{fill:#121420;}
	.st1{fill:#FFFFFF;}
	.st2{fill:#07EFC1;}
</style>
<rect x="5" y="5.9" class="st0" width="65" height="65"/>
<rect x="71" y="5.9" class="st0" width="65" height="65"/>
<rect x="137" y="5.9" class="st0" width="65" height="65"/>
<rect x="203" y="5.9" class="st0" width="65" height="65"/>
<g>
	<path class="st1" d="M246.9,30.2c-0.9,0.4-2,0.7-2.9,0.8c1.1-0.6,1.9-1.7,2.3-2.8c-1,0.6-2.1,1.1-3.3,1.2c-1-1-2.3-1.6-3.8-1.6
		c-2.8,0-5.1,2.3-5.1,5.1c0,0.4,0.1,0.8,0.2,1.2c-4.3-0.2-8.1-2.3-10.6-5.4c-0.4,0.8-0.7,1.7-0.7,2.6c0,1.8,0.9,3.4,2.3,4.3
		c-0.9,0-1.7-0.3-2.3-0.6c0,0,0,0,0,0.1c0,2.5,1.8,4.6,4.2,5.1c-0.4,0.1-0.9,0.2-1.3,0.2c-0.4,0-0.6,0-1-0.1c0.6,2,2.6,3.5,4.8,3.5
		c-1.8,1.4-4,2.2-6.4,2.2c-0.4,0-0.8,0-1.2-0.1c2.3,1.5,5,2.3,7.9,2.3c9.5,0,14.7-7.9,14.7-14.7c0-0.3,0-0.4,0-0.7
		C245.3,32.2,246.1,31.3,246.9,30.2"/>
</g>
<g>
	<path class="st1" d="M173.4,38.1c0,2.3-1.8,4.1-4.1,4.1s-4.1-1.8-4.1-4.1s1.8-4.1,4.1-4.1C171.7,33.9,173.4,35.7,173.4,38.1z"/>
	<g>
		<path class="st1" d="M162.9,34.7c1.2-2.3,3.6-3.9,6.4-3.9s5.1,1.7,6.4,3.9h6.1v-5.9c0-1.8-1.4-3.3-3-3.3h-18.7
			c-1.7,0.1-3,1.7-3,3.5v5.9L162.9,34.7L162.9,34.7z M176.4,28.1h3.7v4.1h-3.7C176.4,32.3,176.4,28.1,176.4,28.1z"/>
		<path class="st1" d="M176.4,37.8c0,0.1,0,0.1,0,0.3c0,4-3.2,7.2-7.2,7.2s-7.2-3.2-7.2-7.2c0-0.1,0-0.1,0-0.3h-5.2v9.4
			c0,1.8,1.4,3.3,3,3.3h18.6c1.7,0,3-1.5,3-3.3v-9.4C181.4,37.8,176.4,37.8,176.4,37.8z"/>
	</g>
</g>
<path class="st1" d="M35.3,49.3V38.5h-2.9v-3.9h2.9c0,0,0-1.6,0-3.3c0-2.6,1.7-5,5.6-5c1.6,0,2.7,0.2,2.7,0.2l-0.1,3.6
	c0,0-1.2,0-2.5,0c-1.4,0-1.6,0.6-1.6,1.7c0,0.8,0-1.8,0,2.8h4.2l-0.2,3.9h-4v10.8H35.3z"/>
<g>
	<polygon class="st1" points="115.4,37.2 112,37.2 112,33.8 112,33.6 111.8,33.6 110.9,33.6 110.5,33.6 110.5,33.8 110.5,37.2 
		107.3,37.2 106.9,37.2 106.9,37.4 106.9,38.3 106.9,38.7 107.3,38.7 110.5,38.7 110.5,41.9 110.5,42.4 110.9,42.4 111.8,42.4 
		112,42.4 112,41.9 112,38.7 115.4,38.7 115.7,38.7 115.7,38.3 115.7,37.4 115.7,37.2 	"/>
	<path class="st1" d="M103.8,40.4c-0.8-0.6-1.9-1.6-1.9-2.2c0-0.7,0.2-1.1,1.4-2c1.4-1.1,2.2-2.5,2.2-4c0-1.8-0.7-3.3-1.9-4.1h1.7
		l0,0l2.1-1.5h-8c-3.6,0-6.7,2.6-6.7,5.6c0,3.2,2.5,5.6,5.9,5.6c0.2,0,0.3,0,0.4,0c-0.2,0.4-0.3,0.8-0.3,1.2c0,0.7,0.3,1.3,0.8,1.9
		c-0.1,0-0.2,0-0.3,0c-0.2,0-0.4,0-0.7,0c-4.1,0-7.5,2.5-7.5,5.5s3.9,4.6,7.8,4.6c4.9,0,7.5-2.8,7.5-5.6
		C106.5,43.1,105.8,41.8,103.8,40.4z M101.6,35.8c-0.5,0.6-1.1,0.8-1.8,0.8h-0.1c-1.9-0.1-3.6-2.1-4-4.6c-0.2-1.4,0.1-2.6,0.8-3.4
		c0.5-0.6,1.1-0.8,1.8-0.8h0.1c1.9,0.1,3.6,2.1,4,4.5C102.6,33.7,102.3,35,101.6,35.8z M104.2,45.7c0,2.4-1.8,3.7-5.3,3.7
		c-2.7,0-4.8-1.7-4.8-3.9c0-2,2.4-3.7,5.2-3.7h0.1c0.6,0,1.2,0.1,1.8,0.3c0.2,0.1,0.4,0.3,0.6,0.4c1.3,0.9,2.1,1.4,2.4,2.5
		C104.2,45.2,104.2,45.5,104.2,45.7z"/>
</g>
<rect x="5" y="71.9" class="st2" width="65" height="65"/>
<rect x="71" y="71.9" class="st2" width="65" height="65"/>
<rect x="137" y="71.9" class="st2" width="65" height="65"/>
<rect x="203" y="71.9" class="st2" width="65" height="65"/>
<g>
	<path class="st1" d="M246.9,96.2c-0.9,0.4-2,0.7-2.9,0.8c1.1-0.6,1.9-1.7,2.3-2.8c-1,0.6-2.1,1.1-3.3,1.2c-1-1-2.3-1.6-3.8-1.6
		c-2.8,0-5.1,2.3-5.1,5.1c0,0.4,0.1,0.8,0.2,1.2c-4.3-0.2-8.1-2.3-10.6-5.4c-0.4,0.8-0.7,1.7-0.7,2.6c0,1.8,0.9,3.4,2.3,4.3
		c-0.9,0-1.7-0.3-2.3-0.6c0,0,0,0,0,0.1c0,2.5,1.8,4.6,4.2,5.1c-0.4,0.1-0.9,0.2-1.3,0.2c-0.4,0-0.6,0-1-0.1c0.6,2,2.6,3.5,4.8,3.5
		c-1.8,1.4-4,2.2-6.4,2.2c-0.4,0-0.8,0-1.2-0.1c2.3,1.5,5,2.3,7.9,2.3c9.5,0,14.7-7.9,14.7-14.7c0-0.3,0-0.4,0-0.7
		C245.3,98.2,246.1,97.3,246.9,96.2"/>
</g>
<g>
	<path class="st1" d="M173.4,104.1c0,2.3-1.8,4.1-4.1,4.1s-4.1-1.8-4.1-4.1s1.8-4.1,4.1-4.1C171.7,99.9,173.4,101.7,173.4,104.1z"/>
	<g>
		<path class="st1" d="M162.9,100.7c1.2-2.3,3.6-3.9,6.4-3.9s5.1,1.7,6.4,3.9h6.1v-5.9c0-1.8-1.4-3.3-3-3.3h-18.7
			c-1.7,0.1-3,1.7-3,3.5v5.9L162.9,100.7L162.9,100.7z M176.4,94.1h3.7v4.1h-3.7C176.4,98.3,176.4,94.1,176.4,94.1z"/>
		<path class="st1" d="M176.4,103.8c0,0.1,0,0.1,0,0.3c0,4-3.2,7.2-7.2,7.2s-7.2-3.2-7.2-7.2c0-0.1,0-0.1,0-0.3h-5.2v9.4
			c0,1.8,1.4,3.3,3,3.3h18.6c1.7,0,3-1.5,3-3.3v-9.4C181.4,103.8,176.4,103.8,176.4,103.8z"/>
	</g>
</g>
<path class="st1" d="M35.3,115.3v-10.8h-2.9v-3.9h2.9c0,0,0-1.6,0-3.3c0-2.6,1.7-5,5.6-5c1.6,0,2.7,0.2,2.7,0.2l-0.1,3.6
	c0,0-1.2,0-2.5,0c-1.4,0-1.6,0.6-1.6,1.7c0,0.8,0-1.8,0,2.8h4.2l-0.2,3.9h-4v10.8H35.3z"/>
<g>
	<polygon class="st1" points="115.4,103.2 112,103.2 112,99.8 112,99.6 111.8,99.6 110.9,99.6 110.5,99.6 110.5,99.8 110.5,103.2 
		107.3,103.2 106.9,103.2 106.9,103.4 106.9,104.3 106.9,104.7 107.3,104.7 110.5,104.7 110.5,107.9 110.5,108.4 110.9,108.4 
		111.8,108.4 112,108.4 112,107.9 112,104.7 115.4,104.7 115.7,104.7 115.7,104.3 115.7,103.4 115.7,103.2 	"/>
	<path class="st1" d="M103.8,106.4c-0.8-0.6-1.9-1.6-1.9-2.2c0-0.7,0.2-1.1,1.4-2c1.4-1.1,2.2-2.5,2.2-4c0-1.8-0.7-3.3-1.9-4.1h1.7
		l0,0l2.1-1.5h-8c-3.6,0-6.7,2.6-6.7,5.6c0,3.2,2.5,5.6,5.9,5.6c0.2,0,0.3,0,0.4,0c-0.2,0.4-0.3,0.8-0.3,1.2c0,0.7,0.3,1.3,0.8,1.9
		c-0.1,0-0.2,0-0.3,0c-0.2,0-0.4,0-0.7,0c-4.1,0-7.5,2.5-7.5,5.5s3.9,4.6,7.8,4.6c4.9,0,7.5-2.8,7.5-5.6
		C106.5,109.1,105.8,107.8,103.8,106.4z M101.6,101.8c-0.5,0.6-1.1,0.8-1.8,0.8h-0.1c-1.9-0.1-3.6-2.1-4-4.6
		c-0.2-1.4,0.1-2.6,0.8-3.4c0.5-0.6,1.1-0.8,1.8-0.8h0.1c1.9,0.1,3.6,2.1,4,4.5C102.6,99.7,102.3,101,101.6,101.8z M104.2,111.7
		c0,2.4-1.8,3.7-5.3,3.7c-2.7,0-4.8-1.7-4.8-3.9c0-2,2.4-3.7,5.2-3.7h0.1c0.6,0,1.2,0.1,1.8,0.3c0.2,0.1,0.4,0.3,0.6,0.4
		c1.3,0.9,2.1,1.4,2.4,2.5C104.2,111.2,104.2,111.5,104.2,111.7z"/>
</g>
</svg>
