<?xml version="1.0" encoding="utf-8"?>
<!-- Generator: Adobe Illustrator 20.1.0, SVG Export Plug-In . SVG Version: 6.00 Build 0)  -->
<svg version="1.1" id="Layer_3" xmlns="http://www.w3.org/2000/svg" xmlns:xlink="http://www.w3.org/1999/xlink" x="0px" y="0px"
	 viewBox="0 0 281.6 175.1" style="enable-background:new 0 0 281.6 175.1;" xml:space="preserve">
<style type="text/css">
	.st0{fill:#07EFC1;}
</style>
<g>
	<path class="st0" d="M67.5,78.2H77c8.8,0,13.9,5.1,13.9,12.2v0.1c0,7.1-5.2,12.4-14.1,12.4h-9.4V78.2z M77.1,96.8
		c4.1,0,6.8-2.3,6.8-6.2v-0.1c0-4-2.7-6.2-6.8-6.2h-2.8v12.5H77.1z"/>
	<path class="st0" d="M92.2,93.5L92.2,93.5c0-5.5,4.5-10.1,10.6-10.1s10.5,4.5,10.5,9.9v0.1c0,5.4-4.5,10-10.6,10
		C96.6,103.4,92.2,98.9,92.2,93.5z M106.8,93.5L106.8,93.5c0-2.4-1.7-4.4-4-4.4c-2.4,0-4,1.9-4,4.3v0.1c0,2.3,1.7,4.3,4,4.3
		C105.2,97.7,106.8,95.7,106.8,93.5z"/>
	<path class="st0" d="M115.1,83.9h6.7v2.6c1.2-1.6,3-3,5.6-3c2.6,0,4.5,1.1,5.5,3.1c1.7-1.9,3.6-3.1,6.4-3.1c4,0,6.5,2.6,6.5,7V103
		h-6.7V92.7c0-2.1-1-3.2-2.6-3.2s-2.8,1.1-2.8,3.2V103H127V92.7c0-2.1-1-3.2-2.6-3.2c-1.6,0-2.7,1.1-2.7,3.2V103H115L115.1,83.9
		L115.1,83.9z"/>
	<path class="st0" d="M157.8,83.9h6.7v2.7c1.2-1.6,3-3.1,5.7-3.1c4,0,6.5,2.7,6.5,7V103H170V92.6c0-2.1-1.1-3.2-2.7-3.2
		s-2.8,1.1-2.8,3.2v10.3h-6.7V83.9z"/>
	<path class="st0" d="M179.1,77.2h7v4.9h-7V77.2z M179.2,83.9h6.7v19.1h-6.7V83.9z"/>
	<path class="st0" d="M187.9,93.5L187.9,93.5c0-5.5,4.2-10.1,10.2-10.1c3.9,0,6.5,1.7,8.1,4.3l-4.5,3.4c-1-1.2-1.9-2-3.6-2
		c-2.1,0-3.7,1.9-3.7,4.3v0.1c0,2.5,1.5,4.3,3.8,4.3c1.6,0,2.6-0.7,3.7-2l4.5,3.2c-1.8,2.6-4.3,4.4-8.5,4.4
		C192.1,103.4,187.9,98.8,187.9,93.5z"/>
	<g>
		<path class="st0" d="M157.9,108.1L157.9,108.1c0-2.1,1.6-3.9,3.9-3.9c1.4,0,2.2,0.5,2.9,1.2l-0.9,1c-0.6-0.6-1.2-1-2.1-1
			c-1.5,0-2.5,1.2-2.5,2.6l0,0c0,1.5,1,2.6,2.5,2.6c1,0,1.5-0.4,2.1-1l0.9,0.9c-0.8,0.8-1.6,1.3-3,1.3
			C159.5,111.9,157.9,110.2,157.9,108.1z"/>
		<path class="st0" d="M165.2,109L165.2,109c0-1.6,1.3-3,3-3c1.8,0,3,1.3,3,2.9l0,0c0,1.6-1.3,2.9-3,2.9
			C166.5,111.9,165.2,110.6,165.2,109z M169.9,109L169.9,109c0-1-0.7-1.8-1.8-1.8s-1.7,0.8-1.7,1.8l0,0c0,1,0.7,1.8,1.7,1.8
			C169.3,110.8,169.9,110,169.9,109z"/>
		<path class="st0" d="M172.2,106.1h1.3v0.9c0.4-0.5,0.9-1,1.7-1s1.4,0.4,1.7,1c0.4-0.6,1-1,1.9-1c1.2,0,2,0.8,2,2.1v3.6h-1.3v-3.2
			c0-0.9-0.4-1.4-1.2-1.4s-1.2,0.5-1.2,1.4v3.2h-1.3v-3.2c0-0.9-0.4-1.4-1.2-1.4s-1.2,0.5-1.2,1.4v3.2h-1.3L172.2,106.1L172.2,106.1
			z"/>
		<path class="st0" d="M182,106.1h1.3v1c0.4-0.6,1-1,1.9-1c1.3,0,2.6,1,2.6,2.9l0,0c0,1.9-1.3,2.9-2.6,2.9c-1,0-1.5-0.4-1.9-1v2.6
			H182V106.1z M186.6,109L186.6,109c0-1.1-0.7-1.8-1.6-1.8s-1.6,0.7-1.6,1.8l0,0c0,1.1,0.7,1.8,1.6,1.8S186.6,110.1,186.6,109z"/>
		<path class="st0" d="M192.4,111.7v-0.7c-0.4,0.4-1,0.8-1.8,0.8c-1.1,0-2-0.6-2-1.8l0,0c0-1.2,1-1.8,2.3-1.8c0.7,0,1.1,0.1,1.5,0.2
			v-0.1c0-0.8-0.5-1.2-1.4-1.2c-0.7,0-1.1,0.1-1.6,0.4l-0.4-1c0.6-0.3,1.2-0.4,2.1-0.4c1.7,0,2.5,0.9,2.5,2.4v3.4h-1.2V111.7z
			 M192.4,109.4c-0.4-0.1-0.8-0.2-1.3-0.2c-0.8,0-1.3,0.4-1.3,0.9l0,0c0,0.5,0.5,0.8,1.1,0.8c0.9,0,1.5-0.5,1.5-1.2L192.4,109.4
			L192.4,109.4z"/>
		<path class="st0" d="M194.9,106.1h1.3v0.9c0.4-0.5,0.9-1,1.8-1c1.2,0,2,0.9,2,2.2v3.6h-1.3v-3.2c0-0.9-0.4-1.4-1.2-1.4
			s-1.2,0.5-1.2,1.4v3.2h-1.3L194.9,106.1L194.9,106.1z"/>
		<path class="st0" d="M200.7,113.1l0.4-1c0.2,0.1,0.5,0.2,0.7,0.2c0.4,0,0.6-0.1,0.8-0.7l-2.3-5.6h1.4l1.6,4.2l1.5-4.2h1.3
			l-2.3,5.8c-0.4,1.2-1,1.6-1.8,1.6C201.5,113.5,201.1,113.4,200.7,113.1z"/>
	</g>
	<g>
		<rect x="148.3" y="77.2" class="st0" width="7" height="4.9"/>
		<path class="st0" d="M148.4,111.7h1.7c-1-0.3-1.5-1-1.5-2l0,0c0-1,0.7-1.7,1.8-2.1c-0.5-0.6-0.7-1-0.7-1.6l0,0c0-1,0.8-1.8,2-1.8
			c1,0,1.8,0.7,1.8,1.7l0,0c0,1-0.7,1.5-1.8,2l1.7,1.8c0.4-0.5,0.7-1,0.9-1.7l0.7,0.3c-0.4,0.7-0.7,1.3-1.1,1.9l1.2,1.2V83.9h-6.7
			V111.7z"/>
		<path class="st0" d="M152.6,105.9L152.6,105.9c0-0.6-0.4-1-1-1c-0.7,0-1.1,0.4-1.1,1.1l0,0c0,0.4,0.1,0.7,0.7,1.4
			C152.2,107,152.6,106.5,152.6,105.9z"/>
		<path class="st0" d="M149.5,109.8L149.5,109.8c0,0.8,0.7,1.5,1.5,1.5c0.7,0,1.3-0.4,1.9-1l-2-2.1
			C149.9,108.5,149.5,109.1,149.5,109.8z"/>
		<polygon class="st0" points="154.7,111.7 155.1,111.7 155.1,111.4 		"/>
		<path class="st0" d="M153.4,110.7c-0.5,0.5-1,0.9-1.7,1h2.7L153.4,110.7z"/>
	</g>
</g>
<g>
	<path class="st0" d="M92.5,116.6c-1.4,0.9-1.7,2.8-0.8,4.1c0.6,0.8,1.5,1.3,2.4,1.3c0.6,0,1.2-0.2,1.8-0.5c1.4-0.9,1.7-2.8,0.8-4.1
		C95.7,116,93.9,115.6,92.5,116.6z"/>
	<path class="st0" d="M103.9,47c0.7,0,1.4-0.2,2-0.7c1.2-1.1,1.4-2.9,0.3-4.2c-1.1-1.2-2.9-1.4-4.2-0.3c-1.2,1.1-1.4,2.9-0.3,4.2
		C102.3,46.6,103.1,47,103.9,47z"/>
	<path class="st0" d="M99.7,125.9c-1.1,1.2-1.1,3.1,0.1,4.2c0.6,0.5,1.3,0.8,2,0.8c0.8,0,1.6-0.3,2.2-0.9c1.1-1.2,1.1-3.1-0.1-4.2
		C102.7,124.7,100.9,124.7,99.7,125.9z"/>
	<path class="st0" d="M124.5,35.7c0.3,0,0.6,0,0.9-0.1c1.6-0.5,2.5-2.1,2-3.7c-0.5-1.6-2.1-2.5-3.7-2c-1.6,0.5-2.5,2.1-2,3.7
		C122.1,34.9,123.3,35.7,124.5,35.7z"/>
	<path class="st0" d="M91.3,107.5c-0.6-1.5-2.4-2.2-3.9-1.6c-1.5,0.6-2.2,2.4-1.6,3.9c0.5,1.1,1.5,1.8,2.7,1.8
		c0.4,0,0.8-0.1,1.2-0.2C91.2,110.7,91.9,109,91.3,107.5z"/>
	<path class="st0" d="M113.6,40.3c0.5,0,1-0.1,1.5-0.4c1.4-0.8,2-2.6,1.2-4c-0.8-1.4-2.6-2-4-1.2c-1.4,0.8-2,2.6-1.2,4
		C111.6,39.7,112.6,40.2,113.6,40.3z"/>
	<path class="st0" d="M112.8,132.6c-1.4-0.9-3.2-0.4-4.1,1c-0.9,1.4-0.4,3.2,1,4.1c0.5,0.3,1,0.4,1.5,0.4c1,0,2-0.5,2.6-1.4
		C114.7,135.3,114.2,133.5,112.8,132.6z"/>
	<path class="st0" d="M192.9,68.1c0.4,0,0.8-0.1,1.2-0.2c1.5-0.6,2.2-2.4,1.6-3.9c-0.6-1.5-2.4-2.2-3.9-1.6
		c-1.5,0.6-2.2,2.4-1.6,3.9C190.7,67.4,191.8,68.1,192.9,68.1z"/>
	<path class="st0" d="M122.9,137.5c-1.6-0.5-3.2,0.3-3.8,1.8c-0.5,1.6,0.3,3.2,1.8,3.8c0.3,0.1,0.6,0.2,0.9,0.2c1.2,0,2.4-0.7,2.9-2
		C125.3,139.7,124.5,138,122.9,137.5z"/>
	<path class="st0" d="M193.4,77c0.3,1.4,1.5,2.4,2.8,2.4c0.2,0,0.4,0,0.6-0.1c1.6-0.3,2.7-1.8,2.4-3.5c-0.3-1.6-1.9-2.7-3.5-2.4
		C194.2,73.8,193.1,75.4,193.4,77z"/>
	<path class="st0" d="M94.1,55c0.5,0.4,1.1,0.6,1.7,0.6c0.9,0,1.8-0.4,2.4-1.2c1-1.3,0.7-3.2-0.6-4.2c-1.3-1-3.2-0.8-4.2,0.6
		C92.5,52.1,92.8,53.9,94.1,55z"/>
	<path class="st0" d="M88.4,65.3c0.4,0.2,0.8,0.3,1.2,0.3c1.1,0,2.2-0.6,2.8-1.7c0.7-1.5,0.1-3.3-1.4-4c-1.5-0.7-3.3-0.1-4,1.4
		C86.3,62.9,86.9,64.6,88.4,65.3z"/>
	<path class="st0" d="M85.1,76.7c0.2,0,0.4,0.1,0.6,0.1c1.4,0,2.6-0.9,3-2.3c0.4-1.6-0.6-3.2-2.2-3.6c-1.6-0.4-3.2,0.6-3.6,2.2
		C82.5,74.7,83.5,76.3,85.1,76.7z"/>
	<path class="st0" d="M133.8,140.1c-1.6-0.2-3.1,0.9-3.3,2.6c-0.2,1.6,0.9,3.1,2.6,3.3c0.1,0,0.2,0,0.3,0c1.5,0,2.8-1.1,3-2.6
		C136.6,141.8,135.4,140.3,133.8,140.1z"/>
	<path class="st0" d="M187.2,57.7c0.6,0,1.2-0.1,1.8-0.5c1.4-0.9,1.7-2.8,0.8-4.1c-0.9-1.4-2.8-1.7-4.1-0.7
		c-1.3,0.9-1.7,2.8-0.7,4.1C185.4,57.3,186.3,57.7,187.2,57.7z"/>
	<path class="st0" d="M175.6,127.7c-1.2,1.1-1.4,2.9-0.3,4.2c0.6,0.7,1.4,1,2.2,1c0.7,0,1.4-0.2,2-0.7c1.2-1.1,1.4-2.9,0.3-4.2
		C178.7,126.8,176.8,126.6,175.6,127.7z"/>
	<path class="st0" d="M187.5,119c-1.3-1-3.2-0.8-4.2,0.5c-1,1.3-0.8,3.2,0.5,4.2c0.5,0.4,1.1,0.6,1.7,0.6c0.9,0,1.8-0.4,2.4-1.2
		C189,121.9,188.8,120,187.5,119z"/>
	<path class="st0" d="M179.5,48.8c0.8,0,1.6-0.3,2.2-0.9c1.1-1.2,1.1-3.1-0.1-4.2c-1.2-1.1-3.1-1.1-4.2,0.1
		c-1.1,1.2-1.1,3.1,0.1,4.2C178.1,48.5,178.8,48.8,179.5,48.8z"/>
	<path class="st0" d="M147.7,33.8c0.1,0,0.2,0,0.3,0c1.5,0,2.8-1.1,3-2.6c0.2-1.6-0.9-3.1-2.6-3.3c-1.6-0.2-3.1,0.9-3.3,2.6
		C144.9,32.1,146,33.6,147.7,33.8z"/>
	<path class="st0" d="M145,140.4c-1.6,0.1-2.9,1.5-2.7,3.2c0.1,1.5,1.4,2.7,2.9,2.7c0.1,0,0.2,0,0.3,0c1.6-0.1,2.9-1.6,2.7-3.2
		C148.1,141.4,146.6,140.2,145,140.4z"/>
	<path class="st0" d="M158.5,36.4c0.3,0.1,0.6,0.2,0.9,0.2c1.3,0,2.4-0.7,2.9-2c0.5-1.6-0.3-3.2-1.8-3.8c-1.6-0.5-3.2,0.3-3.8,1.8
		C156.2,34.1,157,35.8,158.5,36.4z"/>
	<path class="st0" d="M166.3,134c-1.4,0.8-2,2.6-1.2,4c0.5,1,1.5,1.5,2.5,1.5c0.5,0,1-0.1,1.5-0.4c1.4-0.8,2-2.6,1.2-4
		C169.6,133.8,167.8,133.2,166.3,134z"/>
	<path class="st0" d="M136.1,33.5c0.1,0,0.2,0,0.3,0c1.6-0.1,2.9-1.6,2.7-3.2c-0.1-1.6-1.6-2.9-3.2-2.7c-1.6,0.1-2.9,1.6-2.7,3.2
		C133.4,32.3,134.6,33.5,136.1,33.5z"/>
	<path class="st0" d="M168.7,41.2c0.5,0.3,1,0.4,1.5,0.4c1,0,2-0.5,2.6-1.4c0.8-1.4,0.4-3.2-1-4.1c-1.4-0.9-3.2-0.4-4.1,1
		C166.8,38.5,167.3,40.3,168.7,41.2z"/>
	<path class="st0" d="M156,138.3c-1.6,0.5-2.5,2.1-2,3.7c0.4,1.3,1.5,2.1,2.8,2.1c0.3,0,0.6,0,0.9-0.1c1.6-0.5,2.5-2.1,2-3.7
		C159.2,138.7,157.6,137.8,156,138.3z"/>
</g>
</svg>
